<svg height="2478" width="720" xmlns="http://www.w3.org/2000/svg">
<rect height="2478" fill="#555" width="720"></rect>
<text fill="#7f7" font-family="Courier New" font-size="12" xml:space="preserve">
<tspan x="10" y="26">20 megabytes installed</tspan>
<tspan x="10" y="42"></tspan>
<tspan x="10" y="58">node_modules</tspan>
<tspan x="10" y="74">└─┬ babili@0.0.12 </tspan>
<tspan x="10" y="90">  ├─┬ babel-cli@6.24.1 </tspan>
<tspan x="10" y="106">  │ ├─┬ babel-core@6.24.1 </tspan>
<tspan x="10" y="122">  │ │ ├─┬ babel-code-frame@6.22.0 </tspan>
<tspan x="10" y="138">  │ │ │ ├─┬ chalk@1.1.3 </tspan>
<tspan x="10" y="154">  │ │ │ │ ├── ansi-styles@2.2.1 </tspan>
<tspan x="10" y="170">  │ │ │ │ ├── escape-string-regexp@1.0.5 </tspan>
<tspan x="10" y="186">  │ │ │ │ ├─┬ has-ansi@2.0.0 </tspan>
<tspan x="10" y="202">  │ │ │ │ │ └── ansi-regex@2.1.1 </tspan>
<tspan x="10" y="218">  │ │ │ │ ├── strip-ansi@3.0.1 </tspan>
<tspan x="10" y="234">  │ │ │ │ └── supports-color@2.0.0 </tspan>
<tspan x="10" y="250">  │ │ │ ├── esutils@2.0.2 </tspan>
<tspan x="10" y="266">  │ │ │ └── js-tokens@3.0.1 </tspan>
<tspan x="10" y="282">  │ │ ├─┬ babel-generator@6.24.1 </tspan>
<tspan x="10" y="298">  │ │ │ ├─┬ detect-indent@4.0.0 </tspan>
<tspan x="10" y="314">  │ │ │ │ └─┬ repeating@2.0.1 </tspan>
<tspan x="10" y="330">  │ │ │ │   └─┬ is-finite@1.0.2 </tspan>
<tspan x="10" y="346">  │ │ │ │     └── number-is-nan@1.0.1 </tspan>
<tspan x="10" y="362">  │ │ │ ├── jsesc@1.3.0 </tspan>
<tspan x="10" y="378">  │ │ │ └── trim-right@1.0.1 </tspan>
<tspan x="10" y="394">  │ │ ├── babel-helpers@6.24.1 </tspan>
<tspan x="10" y="410">  │ │ ├── babel-messages@6.23.0 </tspan>
<tspan x="10" y="426">  │ │ ├── babel-template@6.24.1 </tspan>
<tspan x="10" y="442">  │ │ ├─┬ babel-traverse@6.24.1 </tspan>
<tspan x="10" y="458">  │ │ │ ├── globals@9.17.0 </tspan>
<tspan x="10" y="474">  │ │ │ └─┬ invariant@2.2.2 </tspan>
<tspan x="10" y="490">  │ │ │   └── loose-envify@1.3.1 </tspan>
<tspan x="10" y="506">  │ │ ├─┬ babel-types@6.24.1 </tspan>
<tspan x="10" y="522">  │ │ │ └── to-fast-properties@1.0.2 </tspan>
<tspan x="10" y="538">  │ │ ├── babylon@6.16.1 </tspan>
<tspan x="10" y="554">  │ │ ├─┬ debug@2.6.3 </tspan>
<tspan x="10" y="570">  │ │ │ └── ms@0.7.2 </tspan>
<tspan x="10" y="586">  │ │ ├── json5@0.5.1 </tspan>
<tspan x="10" y="602">  │ │ ├─┬ minimatch@3.0.3 </tspan>
<tspan x="10" y="618">  │ │ │ └─┬ brace-expansion@1.1.7 </tspan>
<tspan x="10" y="634">  │ │ │   ├── balanced-match@0.4.2 </tspan>
<tspan x="10" y="650">  │ │ │   └── concat-map@0.0.1 </tspan>
<tspan x="10" y="666">  │ │ └── private@0.1.7 </tspan>
<tspan x="10" y="682">  │ ├─┬ babel-polyfill@6.23.0 </tspan>
<tspan x="10" y="698">  │ │ ├── core-js@2.4.1 </tspan>
<tspan x="10" y="714">  │ │ └── regenerator-runtime@0.10.3 </tspan>
<tspan x="10" y="730">  │ ├─┬ babel-register@6.24.1 </tspan>
<tspan x="10" y="746">  │ │ ├─┬ home-or-tmp@2.0.0 </tspan>
<tspan x="10" y="762">  │ │ │ ├── os-homedir@1.0.2 </tspan>
<tspan x="10" y="778">  │ │ │ └── os-tmpdir@1.0.2 </tspan>
<tspan x="10" y="794">  │ │ ├─┬ mkdirp@0.5.1 </tspan>
<tspan x="10" y="810">  │ │ │ └── minimist@0.0.8 </tspan>
<tspan x="10" y="826">  │ │ └── source-map-support@0.4.14 </tspan>
<tspan x="10" y="842">  │ ├── babel-runtime@6.23.0 </tspan>
<tspan x="10" y="858">  │ ├─┬ chokidar@1.6.1 </tspan>
<tspan x="10" y="874">  │ │ ├─┬ anymatch@1.3.0 </tspan>
<tspan x="10" y="890">  │ │ │ ├── arrify@1.0.1 </tspan>
<tspan x="10" y="906">  │ │ │ └─┬ micromatch@2.3.11 </tspan>
<tspan x="10" y="922">  │ │ │   ├─┬ arr-diff@2.0.0 </tspan>
<tspan x="10" y="938">  │ │ │   │ └── arr-flatten@1.0.3 </tspan>
<tspan x="10" y="954">  │ │ │   ├── array-unique@0.2.1 </tspan>
<tspan x="10" y="970">  │ │ │   ├─┬ braces@1.8.5 </tspan>
<tspan x="10" y="986">  │ │ │   │ ├─┬ expand-range@1.8.2 </tspan>
<tspan x="10" y="1002">  │ │ │   │ │ └─┬ fill-range@2.2.3 </tspan>
<tspan x="10" y="1018">  │ │ │   │ │   ├── is-number@2.1.0 </tspan>
<tspan x="10" y="1034">  │ │ │   │ │   ├── isobject@2.1.0 </tspan>
<tspan x="10" y="1050">  │ │ │   │ │   ├── randomatic@1.1.6 </tspan>
<tspan x="10" y="1066">  │ │ │   │ │   └── repeat-string@1.6.1 </tspan>
<tspan x="10" y="1082">  │ │ │   │ ├── preserve@0.2.0 </tspan>
<tspan x="10" y="1098">  │ │ │   │ └── repeat-element@1.1.2 </tspan>
<tspan x="10" y="1114">  │ │ │   ├─┬ expand-brackets@0.1.5 </tspan>
<tspan x="10" y="1130">  │ │ │   │ └── is-posix-bracket@0.1.1 </tspan>
<tspan x="10" y="1146">  │ │ │   ├── extglob@0.3.2 </tspan>
<tspan x="10" y="1162">  │ │ │   ├── filename-regex@2.0.0 </tspan>
<tspan x="10" y="1178">  │ │ │   ├─┬ kind-of@3.1.0 </tspan>
<tspan x="10" y="1194">  │ │ │   │ └── is-buffer@1.1.5 </tspan>
<tspan x="10" y="1210">  │ │ │   ├─┬ normalize-path@2.1.1 </tspan>
<tspan x="10" y="1226">  │ │ │   │ └── remove-trailing-separator@1.0.1 </tspan>
<tspan x="10" y="1242">  │ │ │   ├─┬ object.omit@2.0.1 </tspan>
<tspan x="10" y="1258">  │ │ │   │ ├─┬ for-own@0.1.5 </tspan>
<tspan x="10" y="1274">  │ │ │   │ │ └── for-in@1.0.2 </tspan>
<tspan x="10" y="1290">  │ │ │   │ └── is-extendable@0.1.1 </tspan>
<tspan x="10" y="1306">  │ │ │   ├─┬ parse-glob@3.0.4 </tspan>
<tspan x="10" y="1322">  │ │ │   │ ├── glob-base@0.3.0 </tspan>
<tspan x="10" y="1338">  │ │ │   │ └── is-dotfile@1.0.2 </tspan>
<tspan x="10" y="1354">  │ │ │   └─┬ regex-cache@0.4.3 </tspan>
<tspan x="10" y="1370">  │ │ │     ├── is-equal-shallow@0.1.3 </tspan>
<tspan x="10" y="1386">  │ │ │     └── is-primitive@2.0.0 </tspan>
<tspan x="10" y="1402">  │ │ ├── async-each@1.0.1 </tspan>
<tspan x="10" y="1418">  │ │ ├── glob-parent@2.0.0 </tspan>
<tspan x="10" y="1434">  │ │ ├── inherits@2.0.3 </tspan>
<tspan x="10" y="1450">  │ │ ├─┬ is-binary-path@1.0.1 </tspan>
<tspan x="10" y="1466">  │ │ │ └── binary-extensions@1.8.0 </tspan>
<tspan x="10" y="1482">  │ │ ├─┬ is-glob@2.0.1 </tspan>
<tspan x="10" y="1498">  │ │ │ └── is-extglob@1.0.0 </tspan>
<tspan x="10" y="1514">  │ │ └─┬ readdirp@2.1.0 </tspan>
<tspan x="10" y="1530">  │ │   ├─┬ readable-stream@2.2.9 </tspan>
<tspan x="10" y="1546">  │ │   │ ├── buffer-shims@1.0.0 </tspan>
<tspan x="10" y="1562">  │ │   │ ├── core-util-is@1.0.2 </tspan>
<tspan x="10" y="1578">  │ │   │ ├── isarray@1.0.0 </tspan>
<tspan x="10" y="1594">  │ │   │ ├── process-nextick-args@1.0.7 </tspan>
<tspan x="10" y="1610">  │ │   │ ├── string_decoder@1.0.0 </tspan>
<tspan x="10" y="1626">  │ │   │ └── util-deprecate@1.0.2 </tspan>
<tspan x="10" y="1642">  │ │   └── set-immediate-shim@1.0.1 </tspan>
<tspan x="10" y="1658">  │ ├─┬ commander@2.9.0 </tspan>
<tspan x="10" y="1674">  │ │ └── graceful-readlink@1.0.1 </tspan>
<tspan x="10" y="1690">  │ ├── convert-source-map@1.5.0 </tspan>
<tspan x="10" y="1706">  │ ├── fs-readdir-recursive@1.0.0 </tspan>
<tspan x="10" y="1722">  │ ├─┬ glob@7.1.1 </tspan>
<tspan x="10" y="1738">  │ │ ├── fs.realpath@1.0.0 </tspan>
<tspan x="10" y="1754">  │ │ ├─┬ inflight@1.0.6 </tspan>
<tspan x="10" y="1770">  │ │ │ └── wrappy@1.0.2 </tspan>
<tspan x="10" y="1786">  │ │ └── once@1.4.0 </tspan>
<tspan x="10" y="1802">  │ ├── lodash@4.17.4 </tspan>
<tspan x="10" y="1818">  │ ├─┬ output-file-sync@1.1.2 </tspan>
<tspan x="10" y="1834">  │ │ ├── graceful-fs@4.1.11 </tspan>
<tspan x="10" y="1850">  │ │ └── object-assign@4.1.1 </tspan>
<tspan x="10" y="1866">  │ ├── path-is-absolute@1.0.1 </tspan>
<tspan x="10" y="1882">  │ ├── slash@1.0.0 </tspan>
<tspan x="10" y="1898">  │ ├── source-map@0.5.6 </tspan>
<tspan x="10" y="1914">  │ └─┬ v8flags@2.1.1 </tspan>
<tspan x="10" y="1930">  │   └── user-home@1.1.1 </tspan>
<tspan x="10" y="1946">  └─┬ babel-preset-babili@0.0.12 </tspan>
<tspan x="10" y="1962">    ├─┬ babel-plugin-minify-builtins@0.0.2 </tspan>
<tspan x="10" y="1978">    │ └── babel-helper-evaluate-path@0.0.3 </tspan>
<tspan x="10" y="1994">    ├─┬ babel-plugin-minify-constant-folding@0.0.4 </tspan>
<tspan x="10" y="2010">    │ └── jsesc@2.5.0 </tspan>
<tspan x="10" y="2026">    ├─┬ babel-plugin-minify-dead-code-elimination@0.1.4 </tspan>
<tspan x="10" y="2042">    │ ├── babel-helper-mark-eval-scopes@0.0.3 </tspan>
<tspan x="10" y="2058">    │ ├── babel-helper-remove-or-void@0.0.1 </tspan>
<tspan x="10" y="2074">    │ └── lodash.some@4.6.0 </tspan>
<tspan x="10" y="2090">    ├─┬ babel-plugin-minify-flip-comparisons@0.0.2 </tspan>
<tspan x="10" y="2106">    │ └── babel-helper-is-void-0@0.0.1 </tspan>
<tspan x="10" y="2122">    ├─┬ babel-plugin-minify-guarded-expressions@0.0.4 </tspan>
<tspan x="10" y="2138">    │ └── babel-helper-flip-expressions@0.0.2 </tspan>
<tspan x="10" y="2154">    ├── babel-plugin-minify-infinity@0.0.3 </tspan>
<tspan x="10" y="2170">    ├── babel-plugin-minify-mangle-names@0.0.8 </tspan>
<tspan x="10" y="2186">    ├── babel-plugin-minify-numeric-literals@0.0.1 </tspan>
<tspan x="10" y="2202">    ├── babel-plugin-minify-replace@0.0.1 </tspan>
<tspan x="10" y="2218">    ├─┬ babel-plugin-minify-simplify@0.0.8 </tspan>
<tspan x="10" y="2234">    │ ├── babel-helper-is-nodes-equiv@0.0.1 </tspan>
<tspan x="10" y="2250">    │ └── babel-helper-to-multiple-sequence-expressions@0.0.4 </tspan>
<tspan x="10" y="2266">    ├── babel-plugin-minify-type-constructors@0.0.4 </tspan>
<tspan x="10" y="2282">    ├── babel-plugin-transform-inline-consecutive-adds@0.0.2 </tspan>
<tspan x="10" y="2298">    ├── babel-plugin-transform-member-expression-literals@6.8.1 </tspan>
<tspan x="10" y="2314">    ├── babel-plugin-transform-merge-sibling-variables@6.8.2 </tspan>
<tspan x="10" y="2330">    ├── babel-plugin-transform-minify-booleans@6.8.0 </tspan>
<tspan x="10" y="2346">    ├── babel-plugin-transform-property-literals@6.8.1 </tspan>
<tspan x="10" y="2362">    ├── babel-plugin-transform-regexp-constructors@0.0.6 </tspan>
<tspan x="10" y="2378">    ├── babel-plugin-transform-remove-console@6.8.1 </tspan>
<tspan x="10" y="2394">    ├── babel-plugin-transform-remove-debugger@6.8.1 </tspan>
<tspan x="10" y="2410">    ├── babel-plugin-transform-remove-undefined@0.0.5 </tspan>
<tspan x="10" y="2426">    ├── babel-plugin-transform-simplify-comparison-operators@6.8.1 </tspan>
<tspan x="10" y="2442">    ├── babel-plugin-transform-undefined-to-void@6.8.0 </tspan>
<tspan x="10" y="2458">    └── lodash.isplainobject@4.0.6</tspan>
</text>
</svg>
